<?xml version="1.0" encoding="UTF-8" standalone="no"?>
<!-- Created with Inkscape (http://www.inkscape.org/) -->

<svg
   width="35.171776mm"
   height="9.6828041mm"
   viewBox="0 0 35.171775 9.6828039"
   version="1.1"
   id="svg10814"
   inkscape:version="1.1.1 (3bf5ae0d25, 2021-09-20)"
   sodipodi:docname="button.svg"
   xmlns:inkscape="http://www.inkscape.org/namespaces/inkscape"
   xmlns:sodipodi="http://sodipodi.sourceforge.net/DTD/sodipodi-0.dtd"
   xmlns="http://www.w3.org/2000/svg"
   xmlns:svg="http://www.w3.org/2000/svg">
  <sodipodi:namedview
     id="namedview10816"
     pagecolor="#ffffff"
     bordercolor="#666666"
     borderopacity="1.0"
     inkscape:pageshadow="2"
     inkscape:pageopacity="0.0"
     inkscape:pagecheckerboard="0"
     inkscape:document-units="mm"
     showgrid="false"
     inkscape:zoom="4.2469587"
     inkscape:cx="66.518189"
     inkscape:cy="-0.58865654"
     inkscape:window-width="1401"
     inkscape:window-height="1048"
     inkscape:window-x="26"
     inkscape:window-y="23"
     inkscape:window-maximized="0"
     inkscape:current-layer="text11925" />
  <defs
     id="defs10811" />
  <g
     inkscape:label="Layer 1"
     inkscape:groupmode="layer"
     id="layer1"
     transform="translate(-31.030251,-72.134071)">
    <rect
       style="fill:#4051b5;fill-opacity:1;stroke-width:0.0352777;-inkscape-stroke:none;paint-order:markers fill stroke;stop-color:#000000"
       id="rect10917"
       width="35.171776"
       height="9.6828041"
       x="31.030251"
       y="72.134071"
       ry="2.2694852" />
    <g
       aria-label="Zum Spiel"
       id="text11925"
       style="font-size:3.8378px;font-family:'DejaVu Sans Mono';-inkscape-font-specification:'DejaVu Sans Mono';text-align:center;text-anchor:middle;fill:#3f6ec6;stroke-width:0.0352778;paint-order:markers fill stroke">
      <path
         d="m 40.709873,77.829984 h 1.684659 v 0.194888 h -1.963874 v -0.174275 l 1.619072,-2.357399 h -1.57035 v -0.196762 h 1.855187 v 0.164905 z"
         style="-inkscape-font-specification:'Roboto Light';fill:#ffffff"
         id="path1370" />
      <path
         d="m 44.118544,77.768144 q -0.202384,0.294206 -0.646504,0.294206 -0.324189,0 -0.492843,-0.187392 -0.168653,-0.189267 -0.172401,-0.55843 v -1.319244 h 0.222997 v 1.291135 q 0,0.579043 0.468482,0.579043 0.48722,0 0.616521,-0.402894 v -1.467284 h 0.224871 v 2.027588 h -0.217375 z"
         style="-inkscape-font-specification:'Roboto Light';fill:#ffffff"
         id="path1372" />
      <path
         d="m 45.126716,75.997284 0.0075,0.329811 q 0.112436,-0.183645 0.281089,-0.275467 0.168653,-0.09182 0.374785,-0.09182 0.479725,0 0.609026,0.393524 0.108688,-0.189266 0.290458,-0.290458 0.181771,-0.103066 0.401021,-0.103066 0.652126,0 0.665243,0.712091 v 1.352975 h -0.224871 v -1.336109 q -0.0019,-0.27172 -0.118057,-0.402894 -0.11431,-0.131175 -0.374785,-0.131175 -0.241737,0.0037 -0.408516,0.15741 -0.16678,0.151788 -0.185519,0.371037 v 1.341731 h -0.224871 v -1.352975 q -0.0019,-0.260475 -0.123679,-0.387902 -0.119931,-0.129301 -0.371037,-0.129301 -0.211754,0 -0.363542,0.121805 -0.151788,0.119931 -0.224871,0.35792 v 1.390453 h -0.224871 v -2.027588 z"
         style="-inkscape-font-specification:'Roboto Light';fill:#ffffff"
         id="path1374" />
      <path
         d="m 50.853433,77.354006 q 0,-0.226745 -0.159284,-0.357919 -0.159284,-0.133049 -0.582791,-0.251106 -0.423507,-0.119932 -0.618395,-0.260476 -0.277341,-0.198636 -0.277341,-0.520952 0,-0.312945 0.256728,-0.507833 0.258601,-0.196763 0.659621,-0.196763 0.27172,0 0.485347,0.10494 0.215502,0.10494 0.333559,0.292333 0.118057,0.187392 0.118057,0.417885 h -0.232366 q 0,-0.279215 -0.191141,-0.447868 -0.19114,-0.170527 -0.513456,-0.170527 -0.312945,0 -0.498464,0.140544 -0.185518,0.138671 -0.185518,0.363542 0,0.208005 0.166779,0.33918 0.166779,0.131175 0.534069,0.232367 0.367289,0.09932 0.556556,0.208006 0.189266,0.106814 0.284836,0.256728 0.09557,0.149914 0.09557,0.354172 0,0.322315 -0.258602,0.517203 -0.256728,0.194888 -0.678361,0.194888 -0.288585,0 -0.530321,-0.103066 Q 49.378653,77.856219 49.2531,77.6707 49.129421,77.485181 49.129421,77.245319 h 0.230493 q 0,0.288584 0.215501,0.455364 0.215502,0.166779 0.573422,0.166779 0.318567,0 0.511582,-0.140544 0.193014,-0.140545 0.193014,-0.372912 z"
         style="-inkscape-font-specification:'Roboto Light';fill:#ffffff"
         id="path1376" />
      <path
         d="m 53.160236,77.031691 q 0,0.474103 -0.20988,0.753318 -0.20988,0.277341 -0.562178,0.277341 -0.416011,0 -0.637134,-0.292332 v 1.034407 h -0.222998 v -2.807141 h 0.208006 l 0.01124,0.286711 q 0.219249,-0.324189 0.635261,-0.324189 0.363541,0 0.569673,0.275467 0.208006,0.275467 0.208006,0.764561 z m -0.224871,-0.03935 q 0,-0.387903 -0.159284,-0.612774 -0.159284,-0.224871 -0.44412,-0.224871 -0.206132,0 -0.354172,0.09932 -0.148041,0.09932 -0.226745,0.288585 v 0.972567 q 0.08058,0.174275 0.230492,0.266097 0.149915,0.09182 0.354172,0.09182 0.282963,0 0.440373,-0.224871 0.159284,-0.226745 0.159284,-0.655874 z"
         style="-inkscape-font-specification:'Roboto Light';fill:#ffffff"
         id="path1378" />
      <path
         d="m 53.907932,78.024872 h -0.224871 v -2.027588 h 0.224871 z m -0.264224,-2.614127 q 0,-0.06371 0.04123,-0.106813 0.04123,-0.04498 0.112435,-0.04498 0.07121,0 0.112436,0.04498 0.0431,0.0431 0.0431,0.106813 0,0.06371 -0.0431,0.106814 -0.04123,0.0431 -0.112436,0.0431 -0.07121,0 -0.112435,-0.0431 -0.04123,-0.0431 -0.04123,-0.106814 z"
         style="-inkscape-font-specification:'Roboto Light';fill:#ffffff"
         id="path1380" />
      <path
         d="m 55.302133,78.06235 q -0.258602,0 -0.468482,-0.127427 -0.208005,-0.127427 -0.324189,-0.354172 -0.116183,-0.228619 -0.116183,-0.511581 v -0.08058 q 0,-0.292333 0.112435,-0.526573 0.11431,-0.234241 0.316694,-0.36729 0.202384,-0.134922 0.438499,-0.134922 0.369163,0 0.584664,0.25298 0.217376,0.251106 0.217376,0.68773 v 0.125553 h -1.446671 v 0.0431 q 0,0.344802 0.196762,0.575295 0.198636,0.228619 0.498465,0.228619 0.179896,0 0.316693,-0.06559 0.138671,-0.06559 0.251106,-0.209879 l 0.140544,0.106814 q -0.247358,0.357919 -0.717713,0.357919 z m -0.04123,-1.911404 q -0.25298,0 -0.427256,0.185519 -0.172401,0.185518 -0.209879,0.498464 h 1.216178 v -0.02436 q -0.0094,-0.292333 -0.16678,-0.475977 -0.15741,-0.183645 -0.412263,-0.183645 z"
         style="-inkscape-font-specification:'Roboto Light';fill:#ffffff"
         id="path1382" />
      <path
         d="m 56.750678,78.024872 h -0.224871 v -2.87835 h 0.224871 z"
         style="-inkscape-font-specification:'Roboto Light';fill:#ffffff"
         id="path1384" />
    </g>
  </g>
</svg>
